{
    "meta_data": {
        "description": "This is a .piano score file created with keyTAB.",
        "creator": "keyTAB Team",
        "version": 1,
        "extension": ".piano",
        "format": "json",
        "creation_timestamp": "04-02-2026_20:20:05",
        "modification_timestamp": "04-02-2026_22:07:20"
    },
    "header": {
        "title": "title",
        "composer": "composer",
        "arranger": "arranger",
        "lyricist": "lyricist",
        "copyright": "copyright"
    },
    "base_grid": [
        {
            "numerator": 4,
            "denominator": 4,
            "beat_grouping": [
                1,
                2,
                3,
                4
            ],
            "measure_amount": 29,
            "indicator_enabled": true
        }
    ],
    "events": {
        "note": [
            {
                "pitch": 29,
                "time": 0.0,
                "duration": 1024.0,
                "velocity": 64,
                "hand": "<",
                "notehead": "default"
            },
            {
                "pitch": 17,
                "time": 0.0,
                "duration": 1024.0,
                "velocity": 64,
                "hand": "<",
                "notehead": "default"
            },
            {
                "pitch": 15,
                "time": 1024.0,
                "duration": 1024.0,
                "velocity": 64,
                "hand": "<",
                "notehead": "default"
            },
            {
                "pitch": 27,
                "time": 1024.0,
                "duration": 1024.0,
                "velocity": 64,
                "hand": "<",
                "notehead": "default"
            },
            {
                "pitch": 25,
                "time": 2048.0,
                "duration": 512.0,
                "velocity": 64,
                "hand": "<",
                "notehead": "default"
            },
            {
                "pitch": 22,
                "time": 2560.0,
                "duration": 512.0,
                "velocity": 64,
                "hand": "<",
                "notehead": "default"
            },
            {
                "pitch": 13,
                "time": 2048.0,
                "duration": 512.0,
                "velocity": 64,
                "hand": "<",
                "notehead": "default"
            },
            {
                "pitch": 10,
                "time": 2560.0,
                "duration": 512.0,
                "velocity": 64,
                "hand": "<",
                "notehead": "default"
            },
            {
                "pitch": 12,
                "time": 3072.0,
                "duration": 512.0,
                "velocity": 64,
                "hand": "<",
                "notehead": "default"
            },
            {
                "pitch": 24,
                "time": 3072.0,
                "duration": 512.0,
                "velocity": 64,
                "hand": "<",
                "notehead": "default"
            },
            {
                "pitch": 24,
                "time": 3584.0,
                "duration": 512.0,
                "velocity": 64,
                "hand": "<",
                "notehead": "default"
            },
            {
                "pitch": 12,
                "time": 3584.0,
                "duration": 512.0,
                "velocity": 64,
                "hand": "<",
                "notehead": "default"
            },
            {
                "pitch": 5,
                "time": 4096.0,
                "duration": 1024.0,
                "velocity": 64,
                "hand": "<",
                "notehead": "default"
            },
            {
                "pitch": 17,
                "time": 4096.0,
                "duration": 1024.0,
                "velocity": 64,
                "hand": "<",
                "notehead": "default"
            },
            {
                "pitch": 36,
                "time": 0.0,
                "duration": 85.33333333333333,
                "velocity": 64,
                "hand": ">",
                "notehead": "default"
            },
            {
                "pitch": 41,
                "time": 85.33333333333333,
                "duration": 85.33333333333333,
                "velocity": 64,
                "hand": ">",
                "notehead": "default"
            },
            {
                "pitch": 44,
                "time": 170.66666666666666,
                "duration": 85.33333333333333,
                "velocity": 64,
                "hand": ">",
                "notehead": "default"
            },
            {
                "pitch": 36,
                "time": 256.0,
                "duration": 85.33333333333333,
                "velocity": 64,
                "hand": ">",
                "notehead": "default"
            },
            {
                "pitch": 41,
                "time": 341.3333333333333,
                "duration": 85.33333333333333,
                "velocity": 64,
                "hand": ">",
                "notehead": "default"
            },
            {
                "pitch": 44,
                "time": 426.66666666666663,
                "duration": 85.33333333333333,
                "velocity": 64,
                "hand": ">",
                "notehead": "default"
            },
            {
                "pitch": 36,
                "time": 512.0,
                "duration": 85.33333333333333,
                "velocity": 64,
                "hand": ">",
                "notehead": "default"
            },
            {
                "pitch": 41,
                "time": 597.3333333333334,
                "duration": 85.33333333333333,
                "velocity": 64,
                "hand": ">",
                "notehead": "default"
            },
            {
                "pitch": 44,
                "time": 682.6666666666666,
                "duration": 85.33333333333333,
                "velocity": 64,
                "hand": ">",
                "notehead": "default"
            },
            {
                "pitch": 36,
                "time": 768.0,
                "duration": 85.33333333333333,
                "velocity": 64,
                "hand": ">",
                "notehead": "default"
            },
            {
                "pitch": 41,
                "time": 853.3333333333334,
                "duration": 85.33333333333333,
                "velocity": 64,
                "hand": ">",
                "notehead": "default"
            },
            {
                "pitch": 44,
                "time": 938.6666666666666,
                "duration": 85.33333333333333,
                "velocity": 64,
                "hand": ">",
                "notehead": "default"
            },
            {
                "pitch": 36,
                "time": 1024.0,
                "duration": 85.33333333333333,
                "velocity": 64,
                "hand": ">",
                "notehead": "default"
            },
            {
                "pitch": 41,
                "time": 1109.3333333333333,
                "duration": 85.33333333333333,
                "velocity": 64,
                "hand": ">",
                "notehead": "default"
            },
            {
                "pitch": 44,
                "time": 1194.6666666666667,
                "duration": 85.33333333333333,
                "velocity": 64,
                "hand": ">",
                "notehead": "default"
            },
            {
                "pitch": 36,
                "time": 1280.0,
                "duration": 85.33333333333333,
                "velocity": 64,
                "hand": ">",
                "notehead": "default"
            },
            {
                "pitch": 41,
                "time": 1365.3333333333333,
                "duration": 85.33333333333333,
                "velocity": 64,
                "hand": ">",
                "notehead": "default"
            },
            {
                "pitch": 44,
                "time": 1450.6666666666667,
                "duration": 85.33333333333333,
                "velocity": 64,
                "hand": ">",
                "notehead": "default"
            },
            {
                "pitch": 36,
                "time": 1536.0,
                "duration": 85.33333333333333,
                "velocity": 64,
                "hand": ">",
                "notehead": "default"
            },
            {
                "pitch": 41,
                "time": 1621.3333333333333,
                "duration": 85.33333333333333,
                "velocity": 64,
                "hand": ">",
                "notehead": "default"
            },
            {
                "pitch": 44,
                "time": 1706.6666666666667,
                "duration": 85.33333333333333,
                "velocity": 64,
                "hand": ">",
                "notehead": "default"
            },
            {
                "pitch": 36,
                "time": 1792.0,
                "duration": 85.33333333333333,
                "velocity": 64,
                "hand": ">",
                "notehead": "default"
            },
            {
                "pitch": 41,
                "time": 1877.3333333333333,
                "duration": 85.33333333333333,
                "velocity": 64,
                "hand": ">",
                "notehead": "default"
            },
            {
                "pitch": 44,
                "time": 1962.6666666666667,
                "duration": 85.33333333333333,
                "velocity": 64,
                "hand": ">",
                "notehead": "default"
            },
            {
                "pitch": 37,
                "time": 2048.0,
                "duration": 85.33333333333333,
                "velocity": 64,
                "hand": ">",
                "notehead": "default"
            },
            {
                "pitch": 41,
                "time": 2133.333333333333,
                "duration": 85.33333333333333,
                "velocity": 64,
                "hand": ">",
                "notehead": "default"
            },
            {
                "pitch": 44,
                "time": 2218.6666666666665,
                "duration": 85.33333333333333,
                "velocity": 64,
                "hand": ">",
                "notehead": "default"
            },
            {
                "pitch": 37,
                "time": 2304.0,
                "duration": 85.33333333333333,
                "velocity": 64,
                "hand": ">",
                "notehead": "default"
            },
            {
                "pitch": 41,
                "time": 2389.333333333333,
                "duration": 85.33333333333333,
                "velocity": 64,
                "hand": ">",
                "notehead": "default"
            },
            {
                "pitch": 44,
                "time": 2474.6666666666665,
                "duration": 85.33333333333333,
                "velocity": 64,
                "hand": ">",
                "notehead": "default"
            },
            {
                "pitch": 37,
                "time": 2560.0,
                "duration": 85.33333333333333,
                "velocity": 64,
                "hand": ">",
                "notehead": "default"
            },
            {
                "pitch": 42,
                "time": 2645.333333333333,
                "duration": 85.33333333333333,
                "velocity": 64,
                "hand": ">",
                "notehead": "default"
            },
            {
                "pitch": 46,
                "time": 2730.6666666666665,
                "duration": 85.33333333333333,
                "velocity": 64,
                "hand": ">",
                "notehead": "default"
            },
            {
                "pitch": 37,
                "time": 2816.0,
                "duration": 85.33333333333333,
                "velocity": 64,
                "hand": ">",
                "notehead": "default"
            },
            {
                "pitch": 42,
                "time": 2901.333333333333,
                "duration": 85.33333333333333,
                "velocity": 64,
                "hand": ">",
                "notehead": "default"
            },
            {
                "pitch": 46,
                "time": 2986.6666666666665,
                "duration": 85.33333333333333,
                "velocity": 64,
                "hand": ">",
                "notehead": "default"
            },
            {
                "pitch": 36,
                "time": 3072.0,
                "duration": 85.33333333333333,
                "velocity": 64,
                "hand": ">",
                "notehead": "default"
            },
            {
                "pitch": 40,
                "time": 3157.333333333333,
                "duration": 85.33333333333333,
                "velocity": 64,
                "hand": ">",
                "notehead": "default"
            },
            {
                "pitch": 46,
                "time": 3242.6666666666665,
                "duration": 85.33333333333333,
                "velocity": 64,
                "hand": ">",
                "notehead": "default"
            },
            {
                "pitch": 36,
                "time": 3328.0,
                "duration": 85.33333333333333,
                "velocity": 64,
                "hand": ">",
                "notehead": "default"
            },
            {
                "pitch": 41,
                "time": 3413.333333333333,
                "duration": 85.33333333333333,
                "velocity": 64,
                "hand": ">",
                "notehead": "default"
            },
            {
                "pitch": 44,
                "time": 3498.6666666666665,
                "duration": 85.33333333333333,
                "velocity": 64,
                "hand": ">",
                "notehead": "default"
            },
            {
                "pitch": 36,
                "time": 3584.0,
                "duration": 85.33333333333333,
                "velocity": 64,
                "hand": ">",
                "notehead": "default"
            },
            {
                "pitch": 41,
                "time": 3669.333333333333,
                "duration": 85.33333333333333,
                "velocity": 64,
                "hand": ">",
                "notehead": "default"
            },
            {
                "pitch": 43,
                "time": 3754.6666666666665,
                "duration": 85.33333333333333,
                "velocity": 64,
                "hand": ">",
                "notehead": "default"
            },
            {
                "pitch": 34,
                "time": 3840.0,
                "duration": 85.33333333333333,
                "velocity": 64,
                "hand": ">",
                "notehead": "default"
            },
            {
                "pitch": 40,
                "time": 3925.333333333333,
                "duration": 85.33333333333333,
                "velocity": 64,
                "hand": ">",
                "notehead": "default"
            },
            {
                "pitch": 43,
                "time": 4010.6666666666665,
                "duration": 85.33333333333333,
                "velocity": 64,
                "hand": ">",
                "notehead": "default"
            },
            {
                "pitch": 32,
                "time": 4096.0,
                "duration": 85.33333333333333,
                "velocity": 64,
                "hand": ">",
                "notehead": "default"
            },
            {
                "pitch": 36,
                "time": 4181.333333333333,
                "duration": 85.33333333333333,
                "velocity": 64,
                "hand": ">",
                "notehead": "default"
            },
            {
                "pitch": 41,
                "time": 4266.666666666666,
                "duration": 85.33333333333333,
                "velocity": 64,
                "hand": ">",
                "notehead": "default"
            },
            {
                "pitch": 36,
                "time": 4352.0,
                "duration": 85.33333333333333,
                "velocity": 64,
                "hand": ">",
                "notehead": "default"
            },
            {
                "pitch": 41,
                "time": 4437.333333333333,
                "duration": 85.33333333333333,
                "velocity": 64,
                "hand": ">",
                "notehead": "default"
            },
            {
                "pitch": 44,
                "time": 4522.666666666666,
                "duration": 85.33333333333333,
                "velocity": 64,
                "hand": ">",
                "notehead": "default"
            },
            {
                "pitch": 36,
                "time": 4608.0,
                "duration": 85.33333333333333,
                "velocity": 64,
                "hand": ">",
                "notehead": "default"
            },
            {
                "pitch": 41,
                "time": 4693.333333333333,
                "duration": 85.33333333333333,
                "velocity": 64,
                "hand": ">",
                "notehead": "default"
            },
            {
                "pitch": 44,
                "time": 4778.666666666666,
                "duration": 85.33333333333333,
                "velocity": 64,
                "hand": ">",
                "notehead": "default"
            },
            {
                "pitch": 36,
                "time": 4864.0,
                "duration": 85.33333333333333,
                "velocity": 64,
                "hand": ">",
                "notehead": "default"
            },
            {
                "pitch": 41,
                "time": 4949.333333333333,
                "duration": 85.33333333333333,
                "velocity": 64,
                "hand": ">",
                "notehead": "default"
            },
            {
                "pitch": 44,
                "time": 5034.666666666666,
                "duration": 85.33333333333333,
                "velocity": 64,
                "hand": ">",
                "notehead": "default"
            },
            {
                "pitch": 48,
                "time": 4864.0,
                "duration": 192.0,
                "velocity": 64,
                "hand": ">",
                "notehead": "default"
            },
            {
                "pitch": 48,
                "time": 5056.0,
                "duration": 64.0,
                "velocity": 64,
                "hand": ">",
                "notehead": "default"
            },
            {
                "pitch": 48,
                "time": 5120.0,
                "duration": 768.0,
                "velocity": 64,
                "hand": ">",
                "notehead": "default"
            },
            {
                "pitch": 48,
                "time": 5888.0,
                "duration": 192.0,
                "velocity": 64,
                "hand": ">",
                "notehead": "default"
            },
            {
                "pitch": 48,
                "time": 6080.0,
                "duration": 64.0,
                "velocity": 64,
                "hand": ">",
                "notehead": "default"
            },
            {
                "pitch": 48,
                "time": 6144.0,
                "duration": 512.0,
                "velocity": 64,
                "hand": ">",
                "notehead": "default"
            },
            {
                "pitch": 49,
                "time": 6656.0,
                "duration": 512.0,
                "velocity": 64,
                "hand": ">",
                "notehead": "default"
            },
            {
                "pitch": 48,
                "time": 7168.0,
                "duration": 512.0,
                "velocity": 64,
                "hand": ">",
                "notehead": "default"
            },
            {
                "pitch": 46,
                "time": 7680.0,
                "duration": 256.0,
                "velocity": 64,
                "hand": ">",
                "notehead": "default"
            },
            {
                "pitch": 51,
                "time": 7936.0,
                "duration": 256.0,
                "velocity": 64,
                "hand": ">",
                "notehead": "default"
            },
            {
                "pitch": 44,
                "time": 8192.0,
                "duration": 170.66666666666666,
                "velocity": 64,
                "hand": ">",
                "notehead": "default"
            },
            {
                "pitch": 44,
                "time": 8362.666666666666,
                "duration": 85.33333333333333,
                "velocity": 64,
                "hand": ">",
                "notehead": "default"
            },
            {
                "pitch": 36,
                "time": 8192.0,
                "duration": 85.33333333333333,
                "velocity": 64,
                "hand": ">",
                "notehead": "default"
            },
            {
                "pitch": 39,
                "time": 8277.333333333332,
                "duration": 85.33333333333333,
                "velocity": 64,
                "hand": ">",
                "notehead": "default"
            },
            {
                "pitch": 36,
                "time": 8448.0,
                "duration": 85.33333333333333,
                "velocity": 64,
                "hand": ">",
                "notehead": "default"
            },
            {
                "pitch": 39,
                "time": 8533.333333333332,
                "duration": 85.33333333333333,
                "velocity": 64,
                "hand": ">",
                "notehead": "default"
            },
            {
                "pitch": 44,
                "time": 8618.666666666666,
                "duration": 85.33333333333333,
                "velocity": 64,
                "hand": ">",
                "notehead": "default"
            },
            {
                "pitch": 36,
                "time": 8704.0,
                "duration": 85.33333333333333,
                "velocity": 64,
                "hand": ">",
                "notehead": "default"
            },
            {
                "pitch": 39,
                "time": 8789.333333333332,
                "duration": 85.33333333333333,
                "velocity": 64,
                "hand": ">",
                "notehead": "default"
            },
            {
                "pitch": 44,
                "time": 8874.666666666666,
                "duration": 85.33333333333333,
                "velocity": 64,
                "hand": ">",
                "notehead": "default"
            },
            {
                "pitch": 36,
                "time": 8960.0,
                "duration": 85.33333333333333,
                "velocity": 64,
                "hand": ">",
                "notehead": "default"
            },
            {
                "pitch": 39,
                "time": 9045.333333333332,
                "duration": 85.33333333333333,
                "velocity": 64,
                "hand": ">",
                "notehead": "default"
            },
            {
                "pitch": 44,
                "time": 9130.666666666666,
                "duration": 85.33333333333333,
                "velocity": 64,
                "hand": ">",
                "notehead": "default"
            },
            {
                "pitch": 35,
                "time": 9216.0,
                "duration": 85.33333333333333,
                "velocity": 64,
                "hand": ">",
                "notehead": "default"
            },
            {
                "pitch": 39,
                "time": 9301.333333333332,
                "duration": 85.33333333333333,
                "velocity": 64,
                "hand": ">",
                "notehead": "default"
            },
            {
                "pitch": 44,
                "time": 9386.666666666666,
                "duration": 85.33333333333333,
                "velocity": 64,
                "hand": ">",
                "notehead": "default"
            },
            {
                "pitch": 35,
                "time": 9472.0,
                "duration": 85.33333333333333,
                "velocity": 64,
                "hand": ">",
                "notehead": "default"
            },
            {
                "pitch": 39,
                "time": 9557.333333333332,
                "duration": 85.33333333333333,
                "velocity": 64,
                "hand": ">",
                "notehead": "default"
            },
            {
                "pitch": 44,
                "time": 9642.666666666666,
                "duration": 85.33333333333333,
                "velocity": 64,
                "hand": ">",
                "notehead": "default"
            },
            {
                "pitch": 35,
                "time": 9728.0,
                "duration": 85.33333333333333,
                "velocity": 64,
                "hand": ">",
                "notehead": "default"
            },
            {
                "pitch": 39,
                "time": 9813.333333333332,
                "duration": 85.33333333333333,
                "velocity": 64,
                "hand": ">",
                "notehead": "default"
            },
            {
                "pitch": 44,
                "time": 9898.666666666666,
                "duration": 85.33333333333333,
                "velocity": 64,
                "hand": ">",
                "notehead": "default"
            },
            {
                "pitch": 35,
                "time": 9984.0,
                "duration": 85.33333333333333,
                "velocity": 64,
                "hand": ">",
                "notehead": "default"
            },
            {
                "pitch": 39,
                "time": 10069.333333333332,
                "duration": 85.33333333333333,
                "velocity": 64,
                "hand": ">",
                "notehead": "default"
            },
            {
                "pitch": 44,
                "time": 10154.666666666666,
                "duration": 85.33333333333333,
                "velocity": 64,
                "hand": ">",
                "notehead": "default"
            },
            {
                "pitch": 47,
                "time": 9984.0,
                "duration": 192.0,
                "velocity": 64,
                "hand": ">",
                "notehead": "default"
            },
            {
                "pitch": 47,
                "time": 10176.0,
                "duration": 64.0,
                "velocity": 64,
                "hand": ">",
                "notehead": "default"
            },
            {
                "pitch": 47,
                "time": 10240.0,
                "duration": 768.0,
                "velocity": 64,
                "hand": ">",
                "notehead": "default"
            },
            {
                "pitch": 47,
                "time": 11008.0,
                "duration": 192.0,
                "velocity": 64,
                "hand": ">",
                "notehead": "default"
            },
            {
                "pitch": 47,
                "time": 11200.0,
                "duration": 64.0,
                "velocity": 64,
                "hand": ">",
                "notehead": "default"
            },
            {
                "pitch": 47,
                "time": 11264.0,
                "duration": 768.0,
                "velocity": 64,
                "hand": ">",
                "notehead": "default"
            },
            {
                "pitch": 35,
                "time": 10240.0,
                "duration": 85.33333333333333,
                "velocity": 64,
                "hand": ">",
                "notehead": "default"
            },
            {
                "pitch": 39,
                "time": 10325.333333333332,
                "duration": 85.33333333333333,
                "velocity": 64,
                "hand": ">",
                "notehead": "default"
            },
            {
                "pitch": 45,
                "time": 10410.666666666666,
                "duration": 85.33333333333333,
                "velocity": 64,
                "hand": ">",
                "notehead": "default"
            },
            {
                "pitch": 35,
                "time": 10496.0,
                "duration": 85.33333333333333,
                "velocity": 64,
                "hand": ">",
                "notehead": "default"
            },
            {
                "pitch": 39,
                "time": 10581.333333333332,
                "duration": 85.33333333333333,
                "velocity": 64,
                "hand": ">",
                "notehead": "default"
            },
            {
                "pitch": 45,
                "time": 10666.666666666666,
                "duration": 85.33333333333333,
                "velocity": 64,
                "hand": ">",
                "notehead": "default"
            },
            {
                "pitch": 35,
                "time": 10752.0,
                "duration": 85.33333333333333,
                "velocity": 64,
                "hand": ">",
                "notehead": "default"
            },
            {
                "pitch": 39,
                "time": 10837.333333333332,
                "duration": 85.33333333333333,
                "velocity": 64,
                "hand": ">",
                "notehead": "default"
            },
            {
                "pitch": 45,
                "time": 10922.666666666666,
                "duration": 85.33333333333333,
                "velocity": 64,
                "hand": ">",
                "notehead": "default"
            },
            {
                "pitch": 35,
                "time": 11008.0,
                "duration": 85.33333333333333,
                "velocity": 64,
                "hand": ">",
                "notehead": "default"
            },
            {
                "pitch": 39,
                "time": 11093.333333333332,
                "duration": 85.33333333333333,
                "velocity": 64,
                "hand": ">",
                "notehead": "default"
            },
            {
                "pitch": 45,
                "time": 11178.666666666666,
                "duration": 85.33333333333333,
                "velocity": 64,
                "hand": ">",
                "notehead": "default"
            },
            {
                "pitch": 35,
                "time": 11264.0,
                "duration": 85.33333333333333,
                "velocity": 64,
                "hand": ">",
                "notehead": "default"
            },
            {
                "pitch": 40,
                "time": 11349.333333333332,
                "duration": 85.33333333333333,
                "velocity": 64,
                "hand": ">",
                "notehead": "default"
            },
            {
                "pitch": 44,
                "time": 11434.666666666666,
                "duration": 85.33333333333333,
                "velocity": 64,
                "hand": ">",
                "notehead": "default"
            },
            {
                "pitch": 35,
                "time": 11520.0,
                "duration": 85.33333333333333,
                "velocity": 64,
                "hand": ">",
                "notehead": "default"
            },
            {
                "pitch": 39,
                "time": 11605.333333333332,
                "duration": 85.33333333333333,
                "velocity": 64,
                "hand": ">",
                "notehead": "default"
            },
            {
                "pitch": 44,
                "time": 11690.666666666666,
                "duration": 85.33333333333333,
                "velocity": 64,
                "hand": ">",
                "notehead": "default"
            },
            {
                "pitch": 36,
                "time": 5120.0,
                "duration": 85.33333333333333,
                "velocity": 64,
                "hand": ">",
                "notehead": "default"
            },
            {
                "pitch": 43,
                "time": 5205.333333333333,
                "duration": 85.33333333333333,
                "velocity": 64,
                "hand": ">",
                "notehead": "default"
            },
            {
                "pitch": 46,
                "time": 5290.666666666666,
                "duration": 85.33333333333333,
                "velocity": 64,
                "hand": ">",
                "notehead": "default"
            },
            {
                "pitch": 36,
                "time": 5376.0,
                "duration": 85.33333333333333,
                "velocity": 64,
                "hand": ">",
                "notehead": "default"
            },
            {
                "pitch": 43,
                "time": 5461.333333333333,
                "duration": 85.33333333333333,
                "velocity": 64,
                "hand": ">",
                "notehead": "default"
            },
            {
                "pitch": 46,
                "time": 5546.666666666666,
                "duration": 85.33333333333333,
                "velocity": 64,
                "hand": ">",
                "notehead": "default"
            },
            {
                "pitch": 36,
                "time": 5632.0,
                "duration": 85.33333333333333,
                "velocity": 64,
                "hand": ">",
                "notehead": "default"
            },
            {
                "pitch": 43,
                "time": 5717.333333333333,
                "duration": 85.33333333333333,
                "velocity": 64,
                "hand": ">",
                "notehead": "default"
            },
            {
                "pitch": 46,
                "time": 5802.666666666666,
                "duration": 85.33333333333333,
                "velocity": 64,
                "hand": ">",
                "notehead": "default"
            },
            {
                "pitch": 36,
                "time": 5888.0,
                "duration": 85.33333333333333,
                "velocity": 64,
                "hand": ">",
                "notehead": "default"
            },
            {
                "pitch": 43,
                "time": 5973.333333333333,
                "duration": 85.33333333333333,
                "velocity": 64,
                "hand": ">",
                "notehead": "default"
            },
            {
                "pitch": 46,
                "time": 6058.666666666666,
                "duration": 85.33333333333333,
                "velocity": 64,
                "hand": ">",
                "notehead": "default"
            },
            {
                "pitch": 36,
                "time": 6144.0,
                "duration": 85.33333333333333,
                "velocity": 64,
                "hand": ">",
                "notehead": "default"
            },
            {
                "pitch": 41,
                "time": 6229.333333333333,
                "duration": 85.33333333333333,
                "velocity": 64,
                "hand": ">",
                "notehead": "default"
            },
            {
                "pitch": 44,
                "time": 6314.666666666666,
                "duration": 85.33333333333333,
                "velocity": 64,
                "hand": ">",
                "notehead": "default"
            },
            {
                "pitch": 36,
                "time": 6400.0,
                "duration": 85.33333333333333,
                "velocity": 64,
                "hand": ">",
                "notehead": "default"
            },
            {
                "pitch": 41,
                "time": 6485.333333333333,
                "duration": 85.33333333333333,
                "velocity": 64,
                "hand": ">",
                "notehead": "default"
            },
            {
                "pitch": 44,
                "time": 6570.666666666666,
                "duration": 85.33333333333333,
                "velocity": 64,
                "hand": ">",
                "notehead": "default"
            },
            {
                "pitch": 37,
                "time": 6656.0,
                "duration": 85.33333333333333,
                "velocity": 64,
                "hand": ">",
                "notehead": "default"
            },
            {
                "pitch": 41,
                "time": 6741.333333333333,
                "duration": 85.33333333333333,
                "velocity": 64,
                "hand": ">",
                "notehead": "default"
            },
            {
                "pitch": 46,
                "time": 6826.666666666666,
                "duration": 85.33333333333333,
                "velocity": 64,
                "hand": ">",
                "notehead": "default"
            },
            {
                "pitch": 37,
                "time": 6912.0,
                "duration": 85.33333333333333,
                "velocity": 64,
                "hand": ">",
                "notehead": "default"
            },
            {
                "pitch": 41,
                "time": 6997.333333333333,
                "duration": 85.33333333333333,
                "velocity": 64,
                "hand": ">",
                "notehead": "default"
            },
            {
                "pitch": 46,
                "time": 7082.666666666666,
                "duration": 85.33333333333333,
                "velocity": 64,
                "hand": ">",
                "notehead": "default"
            },
            {
                "pitch": 36,
                "time": 7168.0,
                "duration": 85.33333333333333,
                "velocity": 64,
                "hand": ">",
                "notehead": "default"
            },
            {
                "pitch": 39,
                "time": 7253.333333333333,
                "duration": 85.33333333333333,
                "velocity": 64,
                "hand": ">",
                "notehead": "default"
            },
            {
                "pitch": 44,
                "time": 7338.666666666666,
                "duration": 85.33333333333333,
                "velocity": 64,
                "hand": ">",
                "notehead": "default"
            },
            {
                "pitch": 36,
                "time": 7424.0,
                "duration": 85.33333333333333,
                "velocity": 64,
                "hand": ">",
                "notehead": "default"
            },
            {
                "pitch": 39,
                "time": 7509.333333333333,
                "duration": 85.33333333333333,
                "velocity": 64,
                "hand": ">",
                "notehead": "default"
            },
            {
                "pitch": 44,
                "time": 7594.666666666666,
                "duration": 85.33333333333333,
                "velocity": 64,
                "hand": ">",
                "notehead": "default"
            },
            {
                "pitch": 37,
                "time": 7680.0,
                "duration": 85.33333333333333,
                "velocity": 64,
                "hand": ">",
                "notehead": "default"
            },
            {
                "pitch": 39,
                "time": 7765.333333333333,
                "duration": 85.33333333333333,
                "velocity": 64,
                "hand": ">",
                "notehead": "default"
            },
            {
                "pitch": 43,
                "time": 7850.666666666666,
                "duration": 85.33333333333333,
                "velocity": 64,
                "hand": ">",
                "notehead": "default"
            },
            {
                "pitch": 37,
                "time": 7936.0,
                "duration": 85.33333333333333,
                "velocity": 64,
                "hand": ">",
                "notehead": "default"
            },
            {
                "pitch": 39,
                "time": 8021.333333333333,
                "duration": 85.33333333333333,
                "velocity": 64,
                "hand": ">",
                "notehead": "default"
            },
            {
                "pitch": 43,
                "time": 8106.666666666666,
                "duration": 85.33333333333333,
                "velocity": 64,
                "hand": ">",
                "notehead": "default"
            },
            {
                "pitch": 28,
                "time": 5120.0,
                "duration": 1024.0,
                "velocity": 64,
                "hand": "<",
                "notehead": "default"
            },
            {
                "pitch": 24,
                "time": 5120.0,
                "duration": 1024.0,
                "velocity": 64,
                "hand": "<",
                "notehead": "default"
            },
            {
                "pitch": 16,
                "time": 5120.0,
                "duration": 1024.0,
                "velocity": 64,
                "hand": "<",
                "notehead": "default"
            },
            {
                "pitch": 17,
                "time": 6144.0,
                "duration": 512.0,
                "velocity": 64,
                "hand": "<",
                "notehead": "default"
            },
            {
                "pitch": 29,
                "time": 6144.0,
                "duration": 512.0,
                "velocity": 64,
                "hand": "<",
                "notehead": "default"
            },
            {
                "pitch": 10,
                "time": 6656.0,
                "duration": 512.0,
                "velocity": 64,
                "hand": "<",
                "notehead": "default"
            },
            {
                "pitch": 22,
                "time": 6656.0,
                "duration": 512.0,
                "velocity": 64,
                "hand": "<",
                "notehead": "default"
            },
            {
                "pitch": 15,
                "time": 7168.0,
                "duration": 512.0,
                "velocity": 64,
                "hand": "<",
                "notehead": "default"
            },
            {
                "pitch": 27,
                "time": 7168.0,
                "duration": 512.0,
                "velocity": 64,
                "hand": "<",
                "notehead": "default"
            },
            {
                "pitch": 15,
                "time": 7680.0,
                "duration": 512.0,
                "velocity": 64,
                "hand": "<",
                "notehead": "default"
            },
            {
                "pitch": 3,
                "time": 7680.0,
                "duration": 512.0,
                "velocity": 64,
                "hand": "<",
                "notehead": "default"
            },
            {
                "pitch": 20,
                "time": 8192.0,
                "duration": 1024.0,
                "velocity": 64,
                "hand": "<",
                "notehead": "default"
            },
            {
                "pitch": 32,
                "time": 8192.0,
                "duration": 1024.0,
                "velocity": 64,
                "hand": "<",
                "notehead": "default"
            },
            {
                "pitch": 8,
                "time": 9216.0,
                "duration": 1024.0,
                "velocity": 64,
                "hand": "<",
                "notehead": "default"
            },
            {
                "pitch": 20,
                "time": 9216.0,
                "duration": 1024.0,
                "velocity": 64,
                "hand": "<",
                "notehead": "default"
            },
            {
                "pitch": 18,
                "time": 10240.0,
                "duration": 1024.0,
                "velocity": 64,
                "hand": "<",
                "notehead": "default"
            },
            {
                "pitch": 30,
                "time": 10240.0,
                "duration": 1024.0,
                "velocity": 64,
                "hand": "<",
                "notehead": "default"
            },
            {
                "pitch": 16,
                "time": 11264.0,
                "duration": 256.0,
                "velocity": 64,
                "hand": "<",
                "notehead": "default"
            },
            {
                "pitch": 28,
                "time": 11264.0,
                "duration": 256.0,
                "velocity": 64,
                "hand": "<",
                "notehead": "default"
            },
            {
                "pitch": 27,
                "time": 11520.0,
                "duration": 256.0,
                "velocity": 64,
                "hand": "<",
                "notehead": "default"
            },
            {
                "pitch": 15,
                "time": 11520.0,
                "duration": 256.0,
                "velocity": 64,
                "hand": "<",
                "notehead": "default"
            },
            {
                "pitch": 26,
                "time": 11776.0,
                "duration": 512.0,
                "velocity": 64,
                "hand": "<",
                "notehead": "default"
            },
            {
                "pitch": 14,
                "time": 11776.0,
                "duration": 512.0,
                "velocity": 64,
                "hand": "<",
                "notehead": "default"
            },
            {
                "pitch": 46,
                "time": 12032.0,
                "duration": 256.0,
                "velocity": 64,
                "hand": ">",
                "notehead": "default"
            },
            {
                "pitch": 46,
                "time": 12288.0,
                "duration": 512.0,
                "velocity": 64,
                "hand": ">",
                "notehead": "default"
            },
            {
                "pitch": 47,
                "time": 12800.0,
                "duration": 256.0,
                "velocity": 64,
                "hand": ">",
                "notehead": "default"
            },
            {
                "pitch": 44,
                "time": 13056.0,
                "duration": 256.0,
                "velocity": 64,
                "hand": ">",
                "notehead": "default"
            },
            {
                "pitch": 35,
                "time": 11776.0,
                "duration": 85.33333333333333,
                "velocity": 64,
                "hand": ">",
                "notehead": "default"
            },
            {
                "pitch": 41,
                "time": 11861.333333333332,
                "duration": 85.33333333333333,
                "velocity": 64,
                "hand": ">",
                "notehead": "default"
            },
            {
                "pitch": 44,
                "time": 11946.666666666666,
                "duration": 85.33333333333333,
                "velocity": 64,
                "hand": ">",
                "notehead": "default"
            },
            {
                "pitch": 34,
                "time": 12032.0,
                "duration": 85.33333333333333,
                "velocity": 64,
                "hand": ">",
                "notehead": "default"
            },
            {
                "pitch": 41,
                "time": 12117.333333333332,
                "duration": 85.33333333333333,
                "velocity": 64,
                "hand": ">",
                "notehead": "default"
            },
            {
                "pitch": 44,
                "time": 12202.666666666666,
                "duration": 85.33333333333333,
                "velocity": 64,
                "hand": ">",
                "notehead": "default"
            },
            {
                "pitch": 34,
                "time": 12288.0,
                "duration": 85.33333333333333,
                "velocity": 64,
                "hand": ">",
                "notehead": "default"
            },
            {
                "pitch": 39,
                "time": 12373.333333333332,
                "duration": 85.33333333333333,
                "velocity": 64,
                "hand": ">",
                "notehead": "default"
            },
            {
                "pitch": 42,
                "time": 12458.666666666666,
                "duration": 85.33333333333333,
                "velocity": 64,
                "hand": ">",
                "notehead": "default"
            },
            {
                "pitch": 34,
                "time": 12544.0,
                "duration": 85.33333333333333,
                "velocity": 64,
                "hand": ">",
                "notehead": "default"
            },
            {
                "pitch": 39,
                "time": 12629.333333333332,
                "duration": 85.33333333333333,
                "velocity": 64,
                "hand": ">",
                "notehead": "default"
            },
            {
                "pitch": 42,
                "time": 12714.666666666666,
                "duration": 85.33333333333333,
                "velocity": 64,
                "hand": ">",
                "notehead": "default"
            },
            {
                "pitch": 35,
                "time": 12800.0,
                "duration": 85.33333333333333,
                "velocity": 64,
                "hand": ">",
                "notehead": "default"
            },
            {
                "pitch": 39,
                "time": 12885.333333333332,
                "duration": 85.33333333333333,
                "velocity": 64,
                "hand": ">",
                "notehead": "default"
            },
            {
                "pitch": 41,
                "time": 12970.666666666666,
                "duration": 85.33333333333333,
                "velocity": 64,
                "hand": ">",
                "notehead": "default"
            },
            {
                "pitch": 32,
                "time": 13056.0,
                "duration": 85.33333333333333,
                "velocity": 64,
                "hand": ">",
                "notehead": "default"
            },
            {
                "pitch": 39,
                "time": 13141.333333333332,
                "duration": 85.33333333333333,
                "velocity": 64,
                "hand": ">",
                "notehead": "default"
            },
            {
                "pitch": 41,
                "time": 13226.666666666666,
                "duration": 85.33333333333333,
                "velocity": 64,
                "hand": ">",
                "notehead": "default"
            },
            {
                "pitch": 15,
                "time": 12288.0,
                "duration": 512.0,
                "velocity": 64,
                "hand": "<",
                "notehead": "default"
            },
            {
                "pitch": 27,
                "time": 12288.0,
                "duration": 512.0,
                "velocity": 64,
                "hand": "<",
                "notehead": "default"
            },
            {
                "pitch": 20,
                "time": 12800.0,
                "duration": 256.0,
                "velocity": 64,
                "hand": "<",
                "notehead": "default"
            },
            {
                "pitch": 11,
                "time": 13056.0,
                "duration": 256.0,
                "velocity": 64,
                "hand": "<",
                "notehead": "default"
            },
            {
                "pitch": 23,
                "time": 13056.0,
                "duration": 256.0,
                "velocity": 64,
                "hand": "<",
                "notehead": "default"
            },
            {
                "pitch": 32,
                "time": 12800.0,
                "duration": 256.0,
                "velocity": 64,
                "hand": "<",
                "notehead": "default"
            },
            {
                "pitch": 22,
                "time": 13312.0,
                "duration": 512.0,
                "velocity": 64,
                "hand": "<",
                "notehead": "default"
            },
            {
                "pitch": 22,
                "time": 13824.0,
                "duration": 256.0,
                "velocity": 64,
                "hand": "<",
                "notehead": "default"
            },
            {
                "pitch": 22,
                "time": 14080.0,
                "duration": 256.0,
                "velocity": 64,
                "hand": "<",
                "notehead": "default"
            },
            {
                "pitch": 10,
                "time": 13824.0,
                "duration": 256.0,
                "velocity": 64,
                "hand": "<",
                "notehead": "default"
            },
            {
                "pitch": 34,
                "time": 13312.0,
                "duration": 85.33333333333333,
                "velocity": 64,
                "hand": ">",
                "notehead": "default"
            },
            {
                "pitch": 39,
                "time": 13397.333333333332,
                "duration": 85.33333333333333,
                "velocity": 64,
                "hand": ">",
                "notehead": "default"
            },
            {
                "pitch": 42,
                "time": 13482.666666666666,
                "duration": 85.33333333333333,
                "velocity": 64,
                "hand": ">",
                "notehead": "default"
            },
            {
                "pitch": 46,
                "time": 13312.0,
                "duration": 512.0,
                "velocity": 64,
                "hand": ">",
                "notehead": "default"
            },
            {
                "pitch": 46,
                "time": 13824.0,
                "duration": 256.0,
                "velocity": 64,
                "hand": ">",
                "notehead": "default"
            },
            {
                "pitch": 46,
                "time": 14080.0,
                "duration": 256.0,
                "velocity": 64,
                "hand": ">",
                "notehead": "default"
            },
            {
                "pitch": 34,
                "time": 13568.0,
                "duration": 85.33333333333333,
                "velocity": 64,
                "hand": ">",
                "notehead": "default"
            },
            {
                "pitch": 39,
                "time": 13653.333333333332,
                "duration": 85.33333333333333,
                "velocity": 64,
                "hand": ">",
                "notehead": "default"
            },
            {
                "pitch": 42,
                "time": 13738.666666666666,
                "duration": 85.33333333333333,
                "velocity": 64,
                "hand": ">",
                "notehead": "default"
            },
            {
                "pitch": 34,
                "time": 13824.0,
                "duration": 85.33333333333333,
                "velocity": 64,
                "hand": ">",
                "notehead": "default"
            },
            {
                "pitch": 39,
                "time": 13909.333333333332,
                "duration": 85.33333333333333,
                "velocity": 64,
                "hand": ">",
                "notehead": "default"
            },
            {
                "pitch": 41,
                "time": 13994.666666666666,
                "duration": 85.33333333333333,
                "velocity": 64,
                "hand": ">",
                "notehead": "default"
            },
            {
                "pitch": 34,
                "time": 14080.0,
                "duration": 85.33333333333333,
                "velocity": 64,
                "hand": ">",
                "notehead": "default"
            },
            {
                "pitch": 38,
                "time": 14165.333333333332,
                "duration": 85.33333333333333,
                "velocity": 64,
                "hand": ">",
                "notehead": "default"
            },
            {
                "pitch": 41,
                "time": 14250.666666666666,
                "duration": 85.33333333333333,
                "velocity": 64,
                "hand": ">",
                "notehead": "default"
            },
            {
                "pitch": 3,
                "time": 14336.0,
                "duration": 1024.0,
                "velocity": 64,
                "hand": "<",
                "notehead": "default"
            },
            {
                "pitch": 15,
                "time": 14336.0,
                "duration": 1024.0,
                "velocity": 64,
                "hand": "<",
                "notehead": "default"
            },
            {
                "pitch": 10,
                "time": 14080.0,
                "duration": 256.0,
                "velocity": 64,
                "hand": "<",
                "notehead": "default"
            },
            {
                "pitch": 39,
                "time": 14336.0,
                "duration": 256.0,
                "velocity": 64,
                "hand": ">",
                "notehead": "default"
            },
            {
                "pitch": 27,
                "time": 14336.0,
                "duration": 85.33333333333333,
                "velocity": 64,
                "hand": ">",
                "notehead": "default"
            },
            {
                "pitch": 30,
                "time": 14421.333333333332,
                "duration": 85.33333333333333,
                "velocity": 64,
                "hand": ">",
                "notehead": "default"
            },
            {
                "pitch": 34,
                "time": 14506.666666666666,
                "duration": 85.33333333333333,
                "velocity": 64,
                "hand": ">",
                "notehead": "default"
            },
            {
                "pitch": 30,
                "time": 14592.0,
                "duration": 85.33333333333333,
                "velocity": 64,
                "hand": ">",
                "notehead": "default"
            },
            {
                "pitch": 34,
                "time": 14677.333333333332,
                "duration": 85.33333333333333,
                "velocity": 64,
                "hand": ">",
                "notehead": "default"
            },
            {
                "pitch": 39,
                "time": 14762.666666666666,
                "duration": 85.33333333333333,
                "velocity": 64,
                "hand": ">",
                "notehead": "default"
            },
            {
                "pitch": 34,
                "time": 14848.0,
                "duration": 85.33333333333333,
                "velocity": 64,
                "hand": ">",
                "notehead": "default"
            },
            {
                "pitch": 39,
                "time": 14933.333333333332,
                "duration": 85.33333333333333,
                "velocity": 64,
                "hand": ">",
                "notehead": "default"
            },
            {
                "pitch": 42,
                "time": 15018.666666666666,
                "duration": 85.33333333333333,
                "velocity": 64,
                "hand": ">",
                "notehead": "default"
            },
            {
                "pitch": 34,
                "time": 15104.0,
                "duration": 85.33333333333333,
                "velocity": 64,
                "hand": ">",
                "notehead": "default"
            },
            {
                "pitch": 39,
                "time": 15189.333333333332,
                "duration": 85.33333333333333,
                "velocity": 64,
                "hand": ">",
                "notehead": "default"
            },
            {
                "pitch": 42,
                "time": 15274.666666666666,
                "duration": 85.33333333333333,
                "velocity": 64,
                "hand": ">",
                "notehead": "default"
            },
            {
                "pitch": 46,
                "time": 15104.0,
                "duration": 192.0,
                "velocity": 64,
                "hand": ">",
                "notehead": "default"
            },
            {
                "pitch": 46,
                "time": 15296.0,
                "duration": 64.0,
                "velocity": 64,
                "hand": ">",
                "notehead": "default"
            },
            {
                "pitch": 46,
                "time": 15360.0,
                "duration": 768.0,
                "velocity": 64,
                "hand": ">",
                "notehead": "default"
            },
            {
                "pitch": 46,
                "time": 16128.0,
                "duration": 192.0,
                "velocity": 64,
                "hand": ">",
                "notehead": "default"
            },
            {
                "pitch": 46,
                "time": 16320.0,
                "duration": 64.0,
                "velocity": 64,
                "hand": ">",
                "notehead": "default"
            },
            {
                "pitch": 46,
                "time": 16384.0,
                "duration": 512.0,
                "velocity": 64,
                "hand": ">",
                "notehead": "default"
            },
            {
                "pitch": 45,
                "time": 16896.0,
                "duration": 256.0,
                "velocity": 64,
                "hand": ">",
                "notehead": "default"
            },
            {
                "pitch": 46,
                "time": 17152.0,
                "duration": 256.0,
                "velocity": 64,
                "hand": ">",
                "notehead": "default"
            },
            {
                "pitch": 48,
                "time": 17408.0,
                "duration": 768.0,
                "velocity": 64,
                "hand": ">",
                "notehead": "default"
            },
            {
                "pitch": 48,
                "time": 18176.0,
                "duration": 256.0,
                "velocity": 64,
                "hand": ">",
                "notehead": "default"
            },
            {
                "pitch": 49,
                "time": 18432.0,
                "duration": 512.0,
                "velocity": 64,
                "hand": ">",
                "notehead": "default"
            },
            {
                "pitch": 48,
                "time": 18944.0,
                "duration": 256.0,
                "velocity": 64,
                "hand": ">",
                "notehead": "default"
            },
            {
                "pitch": 46,
                "time": 19200.0,
                "duration": 256.0,
                "velocity": 64,
                "hand": ">",
                "notehead": "default"
            },
            {
                "pitch": 45,
                "time": 19456.0,
                "duration": 256.0,
                "velocity": 64,
                "hand": ">",
                "notehead": "default"
            },
            {
                "pitch": 41,
                "time": 19712.0,
                "duration": 256.0,
                "velocity": 64,
                "hand": ">",
                "notehead": "default"
            },
            {
                "pitch": 42,
                "time": 19968.0,
                "duration": 256.0,
                "velocity": 64,
                "hand": ">",
                "notehead": "default"
            },
            {
                "pitch": 39,
                "time": 20224.0,
                "duration": 256.0,
                "velocity": 64,
                "hand": ">",
                "notehead": "default"
            },
            {
                "pitch": 41,
                "time": 20736.0,
                "duration": 256.0,
                "velocity": 64,
                "hand": ">",
                "notehead": "default"
            },
            {
                "pitch": 42,
                "time": 20992.0,
                "duration": 256.0,
                "velocity": 64,
                "hand": ">",
                "notehead": "default"
            },
            {
                "pitch": 39,
                "time": 21248.0,
                "duration": 256.0,
                "velocity": 64,
                "hand": ">",
                "notehead": "default"
            },
            {
                "pitch": 37,
                "time": 21504.0,
                "duration": 85.33333333333333,
                "velocity": 64,
                "hand": ">",
                "notehead": "default"
            },
            {
                "pitch": 49,
                "time": 21589.333333333332,
                "duration": 85.33333333333333,
                "velocity": 64,
                "hand": ">",
                "notehead": "default"
            },
            {
                "pitch": 53,
                "time": 21674.666666666664,
                "duration": 85.33333333333333,
                "velocity": 64,
                "hand": ">",
                "notehead": "default"
            },
            {
                "pitch": 58,
                "time": 21760.0,
                "duration": 256.0,
                "velocity": 64,
                "hand": ">",
                "notehead": "default"
            },
            {
                "pitch": 61,
                "time": 22016.0,
                "duration": 256.0,
                "velocity": 64,
                "hand": ">",
                "notehead": "default"
            },
            {
                "pitch": 58,
                "time": 22272.0,
                "duration": 256.0,
                "velocity": 64,
                "hand": ">",
                "notehead": "default"
            },
            {
                "pitch": 49,
                "time": 21845.333333333332,
                "duration": 85.33333333333333,
                "velocity": 64,
                "hand": ">",
                "notehead": "default"
            },
            {
                "pitch": 53,
                "time": 21930.666666666664,
                "duration": 85.33333333333333,
                "velocity": 64,
                "hand": ">",
                "notehead": "default"
            },
            {
                "pitch": 49,
                "time": 22101.333333333332,
                "duration": 85.33333333333333,
                "velocity": 64,
                "hand": ">",
                "notehead": "default"
            },
            {
                "pitch": 53,
                "time": 22186.666666666664,
                "duration": 85.33333333333333,
                "velocity": 64,
                "hand": ">",
                "notehead": "default"
            },
            {
                "pitch": 49,
                "time": 22357.333333333332,
                "duration": 85.33333333333333,
                "velocity": 64,
                "hand": ">",
                "notehead": "default"
            },
            {
                "pitch": 53,
                "time": 22442.666666666664,
                "duration": 85.33333333333333,
                "velocity": 64,
                "hand": ">",
                "notehead": "default"
            },
            {
                "pitch": 37,
                "time": 22613.333333333332,
                "duration": 85.33333333333333,
                "velocity": 64,
                "hand": ">",
                "notehead": "default"
            },
            {
                "pitch": 41,
                "time": 22698.666666666664,
                "duration": 85.33333333333333,
                "velocity": 64,
                "hand": ">",
                "notehead": "default"
            },
            {
                "pitch": 46,
                "time": 22784.0,
                "duration": 256.0,
                "velocity": 64,
                "hand": ">",
                "notehead": "default"
            },
            {
                "pitch": 49,
                "time": 23040.0,
                "duration": 256.0,
                "velocity": 64,
                "hand": ">",
                "notehead": "default"
            },
            {
                "pitch": 46,
                "time": 23296.0,
                "duration": 256.0,
                "velocity": 64,
                "hand": ">",
                "notehead": "default"
            },
            {
                "pitch": 37,
                "time": 22869.333333333332,
                "duration": 85.33333333333333,
                "velocity": 64,
                "hand": ">",
                "notehead": "default"
            },
            {
                "pitch": 41,
                "time": 22954.666666666664,
                "duration": 85.33333333333333,
                "velocity": 64,
                "hand": ">",
                "notehead": "default"
            },
            {
                "pitch": 37,
                "time": 23125.333333333332,
                "duration": 85.33333333333333,
                "velocity": 64,
                "hand": ">",
                "notehead": "default"
            },
            {
                "pitch": 41,
                "time": 23210.666666666664,
                "duration": 85.33333333333333,
                "velocity": 64,
                "hand": ">",
                "notehead": "default"
            },
            {
                "pitch": 37,
                "time": 23381.333333333332,
                "duration": 85.33333333333333,
                "velocity": 64,
                "hand": ">",
                "notehead": "default"
            },
            {
                "pitch": 41,
                "time": 23466.666666666664,
                "duration": 85.33333333333333,
                "velocity": 64,
                "hand": ">",
                "notehead": "default"
            },
            {
                "pitch": 26,
                "time": 15360.0,
                "duration": 1024.0,
                "velocity": 64,
                "hand": "<",
                "notehead": "default"
            },
            {
                "pitch": 22,
                "time": 15360.0,
                "duration": 1024.0,
                "velocity": 64,
                "hand": "<",
                "notehead": "default"
            },
            {
                "pitch": 14,
                "time": 15360.0,
                "duration": 1024.0,
                "velocity": 64,
                "hand": "<",
                "notehead": "default"
            },
            {
                "pitch": 34,
                "time": 15360.0,
                "duration": 85.33333333333333,
                "velocity": 64,
                "hand": ">",
                "notehead": "default"
            },
            {
                "pitch": 41,
                "time": 15445.333333333332,
                "duration": 85.33333333333333,
                "velocity": 64,
                "hand": ">",
                "notehead": "default"
            },
            {
                "pitch": 44,
                "time": 15530.666666666666,
                "duration": 85.33333333333333,
                "velocity": 64,
                "hand": ">",
                "notehead": "default"
            },
            {
                "pitch": 34,
                "time": 15616.0,
                "duration": 85.33333333333333,
                "velocity": 64,
                "hand": ">",
                "notehead": "default"
            },
            {
                "pitch": 41,
                "time": 15701.333333333332,
                "duration": 85.33333333333333,
                "velocity": 64,
                "hand": ">",
                "notehead": "default"
            },
            {
                "pitch": 44,
                "time": 15786.666666666666,
                "duration": 85.33333333333333,
                "velocity": 64,
                "hand": ">",
                "notehead": "default"
            },
            {
                "pitch": 34,
                "time": 15872.0,
                "duration": 85.33333333333333,
                "velocity": 64,
                "hand": ">",
                "notehead": "default"
            },
            {
                "pitch": 41,
                "time": 15957.333333333332,
                "duration": 85.33333333333333,
                "velocity": 64,
                "hand": ">",
                "notehead": "default"
            },
            {
                "pitch": 44,
                "time": 16042.666666666666,
                "duration": 85.33333333333333,
                "velocity": 64,
                "hand": ">",
                "notehead": "default"
            },
            {
                "pitch": 34,
                "time": 16128.0,
                "duration": 85.33333333333333,
                "velocity": 64,
                "hand": ">",
                "notehead": "default"
            },
            {
                "pitch": 41,
                "time": 16213.333333333332,
                "duration": 85.33333333333333,
                "velocity": 64,
                "hand": ">",
                "notehead": "default"
            },
            {
                "pitch": 44,
                "time": 16298.666666666666,
                "duration": 85.33333333333333,
                "velocity": 64,
                "hand": ">",
                "notehead": "default"
            },
            {
                "pitch": 34,
                "time": 16384.0,
                "duration": 85.33333333333333,
                "velocity": 64,
                "hand": ">",
                "notehead": "default"
            },
            {
                "pitch": 34,
                "time": 16640.0,
                "duration": 85.33333333333333,
                "velocity": 64,
                "hand": ">",
                "notehead": "default"
            },
            {
                "pitch": 39,
                "time": 16469.333333333332,
                "duration": 85.33333333333333,
                "velocity": 64,
                "hand": ">",
                "notehead": "default"
            },
            {
                "pitch": 42,
                "time": 16554.666666666664,
                "duration": 85.33333333333333,
                "velocity": 64,
                "hand": ">",
                "notehead": "default"
            },
            {
                "pitch": 39,
                "time": 16725.333333333332,
                "duration": 85.33333333333333,
                "velocity": 64,
                "hand": ">",
                "notehead": "default"
            },
            {
                "pitch": 42,
                "time": 16810.666666666664,
                "duration": 85.33333333333333,
                "velocity": 64,
                "hand": ">",
                "notehead": "default"
            },
            {
                "pitch": 15,
                "time": 16384.0,
                "duration": 512.0,
                "velocity": 64,
                "hand": "<",
                "notehead": "default"
            },
            {
                "pitch": 27,
                "time": 16384.0,
                "duration": 512.0,
                "velocity": 64,
                "hand": "<",
                "notehead": "default"
            },
            {
                "pitch": 24,
                "time": 16896.0,
                "duration": 256.0,
                "velocity": 64,
                "hand": "<",
                "notehead": "default"
            },
            {
                "pitch": 12,
                "time": 16896.0,
                "duration": 256.0,
                "velocity": 64,
                "hand": "<",
                "notehead": "default"
            },
            {
                "pitch": 22,
                "time": 17152.0,
                "duration": 256.0,
                "velocity": 64,
                "hand": "<",
                "notehead": "default"
            },
            {
                "pitch": 10,
                "time": 17152.0,
                "duration": 256.0,
                "velocity": 64,
                "hand": "<",
                "notehead": "default"
            },
            {
                "pitch": 21,
                "time": 17408.0,
                "duration": 768.0,
                "velocity": 64,
                "hand": "<",
                "notehead": "default"
            },
            {
                "pitch": 9,
                "time": 17408.0,
                "duration": 768.0,
                "velocity": 64,
                "hand": "<",
                "notehead": "default"
            },
            {
                "pitch": 21,
                "time": 18176.0,
                "duration": 256.0,
                "velocity": 64,
                "hand": "<",
                "notehead": "default"
            },
            {
                "pitch": 33,
                "time": 18176.0,
                "duration": 256.0,
                "velocity": 64,
                "hand": "<",
                "notehead": "default"
            },
            {
                "pitch": 33,
                "time": 16896.0,
                "duration": 85.33333333333333,
                "velocity": 64,
                "hand": ">",
                "notehead": "default"
            },
            {
                "pitch": 39,
                "time": 16981.333333333332,
                "duration": 85.33333333333333,
                "velocity": 64,
                "hand": ">",
                "notehead": "default"
            },
            {
                "pitch": 42,
                "time": 17066.666666666664,
                "duration": 85.33333333333333,
                "velocity": 64,
                "hand": ">",
                "notehead": "default"
            },
            {
                "pitch": 34,
                "time": 17152.0,
                "duration": 85.33333333333333,
                "velocity": 64,
                "hand": ">",
                "notehead": "default"
            },
            {
                "pitch": 39,
                "time": 17237.333333333332,
                "duration": 85.33333333333333,
                "velocity": 64,
                "hand": ">",
                "notehead": "default"
            },
            {
                "pitch": 42,
                "time": 17322.666666666664,
                "duration": 85.33333333333333,
                "velocity": 64,
                "hand": ">",
                "notehead": "default"
            },
            {
                "pitch": 36,
                "time": 17408.0,
                "duration": 85.33333333333333,
                "velocity": 64,
                "hand": ">",
                "notehead": "default"
            },
            {
                "pitch": 39,
                "time": 17493.333333333332,
                "duration": 85.33333333333333,
                "velocity": 64,
                "hand": ">",
                "notehead": "default"
            },
            {
                "pitch": 41,
                "time": 17578.666666666664,
                "duration": 85.33333333333333,
                "velocity": 64,
                "hand": ">",
                "notehead": "default"
            },
            {
                "pitch": 36,
                "time": 17664.0,
                "duration": 85.33333333333333,
                "velocity": 64,
                "hand": ">",
                "notehead": "default"
            },
            {
                "pitch": 39,
                "time": 17749.333333333332,
                "duration": 85.33333333333333,
                "velocity": 64,
                "hand": ">",
                "notehead": "default"
            },
            {
                "pitch": 41,
                "time": 17834.666666666664,
                "duration": 85.33333333333333,
                "velocity": 64,
                "hand": ">",
                "notehead": "default"
            },
            {
                "pitch": 36,
                "time": 17920.0,
                "duration": 85.33333333333333,
                "velocity": 64,
                "hand": ">",
                "notehead": "default"
            },
            {
                "pitch": 39,
                "time": 18005.333333333332,
                "duration": 85.33333333333333,
                "velocity": 64,
                "hand": ">",
                "notehead": "default"
            },
            {
                "pitch": 41,
                "time": 18090.666666666664,
                "duration": 85.33333333333333,
                "velocity": 64,
                "hand": ">",
                "notehead": "default"
            },
            {
                "pitch": 36,
                "time": 18176.0,
                "duration": 85.33333333333333,
                "velocity": 64,
                "hand": ">",
                "notehead": "default"
            },
            {
                "pitch": 39,
                "time": 18261.333333333332,
                "duration": 85.33333333333333,
                "velocity": 64,
                "hand": ">",
                "notehead": "default"
            },
            {
                "pitch": 41,
                "time": 18346.666666666664,
                "duration": 85.33333333333333,
                "velocity": 64,
                "hand": ">",
                "notehead": "default"
            },
            {
                "pitch": 22,
                "time": 18432.0,
                "duration": 512.0,
                "velocity": 64,
                "hand": "<",
                "notehead": "default"
            },
            {
                "pitch": 34,
                "time": 18432.0,
                "duration": 512.0,
                "velocity": 64,
                "hand": "<",
                "notehead": "default"
            },
            {
                "pitch": 15,
                "time": 18944.0,
                "duration": 256.0,
                "velocity": 64,
                "hand": "<",
                "notehead": "default"
            },
            {
                "pitch": 27,
                "time": 18944.0,
                "duration": 256.0,
                "velocity": 64,
                "hand": "<",
                "notehead": "default"
            },
            {
                "pitch": 16,
                "time": 19200.0,
                "duration": 256.0,
                "velocity": 64,
                "hand": "<",
                "notehead": "default"
            },
            {
                "pitch": 28,
                "time": 19200.0,
                "duration": 256.0,
                "velocity": 64,
                "hand": "<",
                "notehead": "default"
            },
            {
                "pitch": 17,
                "time": 19456.0,
                "duration": 1024.0,
                "velocity": 64,
                "hand": "<",
                "notehead": "default"
            },
            {
                "pitch": 29,
                "time": 19456.0,
                "duration": 1024.0,
                "velocity": 64,
                "hand": "<",
                "notehead": "default"
            },
            {
                "pitch": 37,
                "time": 18432.0,
                "duration": 85.33333333333333,
                "velocity": 64,
                "hand": ">",
                "notehead": "default"
            },
            {
                "pitch": 41,
                "time": 18517.333333333332,
                "duration": 85.33333333333333,
                "velocity": 64,
                "hand": ">",
                "notehead": "default"
            },
            {
                "pitch": 46,
                "time": 18602.666666666664,
                "duration": 85.33333333333333,
                "velocity": 64,
                "hand": ">",
                "notehead": "default"
            },
            {
                "pitch": 37,
                "time": 18688.0,
                "duration": 85.33333333333333,
                "velocity": 64,
                "hand": ">",
                "notehead": "default"
            },
            {
                "pitch": 41,
                "time": 18773.333333333332,
                "duration": 85.33333333333333,
                "velocity": 64,
                "hand": ">",
                "notehead": "default"
            },
            {
                "pitch": 46,
                "time": 18858.666666666664,
                "duration": 85.33333333333333,
                "velocity": 64,
                "hand": ">",
                "notehead": "default"
            },
            {
                "pitch": 36,
                "time": 18944.0,
                "duration": 85.33333333333333,
                "velocity": 64,
                "hand": ">",
                "notehead": "default"
            },
            {
                "pitch": 39,
                "time": 19029.333333333332,
                "duration": 85.33333333333333,
                "velocity": 64,
                "hand": ">",
                "notehead": "default"
            },
            {
                "pitch": 42,
                "time": 19114.666666666664,
                "duration": 85.33333333333333,
                "velocity": 64,
                "hand": ">",
                "notehead": "default"
            },
            {
                "pitch": 34,
                "time": 19200.0,
                "duration": 85.33333333333333,
                "velocity": 64,
                "hand": ">",
                "notehead": "default"
            },
            {
                "pitch": 37,
                "time": 19285.333333333332,
                "duration": 85.33333333333333,
                "velocity": 64,
                "hand": ">",
                "notehead": "default"
            },
            {
                "pitch": 43,
                "time": 19370.666666666664,
                "duration": 85.33333333333333,
                "velocity": 64,
                "hand": ">",
                "notehead": "default"
            },
            {
                "pitch": 33,
                "time": 19541.333333333332,
                "duration": 85.33333333333333,
                "velocity": 64,
                "hand": ">",
                "notehead": "default"
            },
            {
                "pitch": 36,
                "time": 19626.666666666664,
                "duration": 85.33333333333333,
                "velocity": 64,
                "hand": ">",
                "notehead": "default"
            },
            {
                "pitch": 33,
                "time": 19797.333333333332,
                "duration": 85.33333333333333,
                "velocity": 64,
                "hand": ">",
                "notehead": "default"
            },
            {
                "pitch": 36,
                "time": 19882.666666666664,
                "duration": 85.33333333333333,
                "velocity": 64,
                "hand": ">",
                "notehead": "default"
            },
            {
                "pitch": 33,
                "time": 20053.333333333332,
                "duration": 85.33333333333333,
                "velocity": 64,
                "hand": ">",
                "notehead": "default"
            },
            {
                "pitch": 36,
                "time": 20138.666666666664,
                "duration": 85.33333333333333,
                "velocity": 64,
                "hand": ">",
                "notehead": "default"
            },
            {
                "pitch": 33,
                "time": 20309.333333333332,
                "duration": 85.33333333333333,
                "velocity": 64,
                "hand": ">",
                "notehead": "default"
            },
            {
                "pitch": 36,
                "time": 20394.666666666664,
                "duration": 85.33333333333333,
                "velocity": 64,
                "hand": ">",
                "notehead": "default"
            },
            {
                "pitch": 5,
                "time": 20480.0,
                "duration": 1024.0,
                "velocity": 64,
                "hand": "<",
                "notehead": "default"
            },
            {
                "pitch": 17,
                "time": 20480.0,
                "duration": 1024.0,
                "velocity": 64,
                "hand": "<",
                "notehead": "default"
            },
            {
                "pitch": 33,
                "time": 20565.333333333332,
                "duration": 85.33333333333333,
                "velocity": 64,
                "hand": ">",
                "notehead": "default"
            },
            {
                "pitch": 36,
                "time": 20650.666666666664,
                "duration": 85.33333333333333,
                "velocity": 64,
                "hand": ">",
                "notehead": "default"
            },
            {
                "pitch": 33,
                "time": 20821.333333333332,
                "duration": 85.33333333333333,
                "velocity": 64,
                "hand": ">",
                "notehead": "default"
            },
            {
                "pitch": 36,
                "time": 20906.666666666664,
                "duration": 85.33333333333333,
                "velocity": 64,
                "hand": ">",
                "notehead": "default"
            },
            {
                "pitch": 33,
                "time": 21077.333333333332,
                "duration": 85.33333333333333,
                "velocity": 64,
                "hand": ">",
                "notehead": "default"
            },
            {
                "pitch": 36,
                "time": 21162.666666666664,
                "duration": 85.33333333333333,
                "velocity": 64,
                "hand": ">",
                "notehead": "default"
            },
            {
                "pitch": 33,
                "time": 21333.333333333332,
                "duration": 85.33333333333333,
                "velocity": 64,
                "hand": ">",
                "notehead": "default"
            },
            {
                "pitch": 36,
                "time": 21418.666666666664,
                "duration": 85.33333333333333,
                "velocity": 64,
                "hand": ">",
                "notehead": "default"
            },
            {
                "pitch": 17,
                "time": 21504.0,
                "duration": 1024.0,
                "velocity": 64,
                "hand": "<",
                "notehead": "default"
            },
            {
                "pitch": 29,
                "time": 21504.0,
                "duration": 1024.0,
                "velocity": 64,
                "hand": "<",
                "notehead": "default"
            },
            {
                "pitch": 5,
                "time": 22528.0,
                "duration": 1024.0,
                "velocity": 64,
                "hand": "<",
                "notehead": "default"
            },
            {
                "pitch": 17,
                "time": 22528.0,
                "duration": 1024.0,
                "velocity": 64,
                "hand": "<",
                "notehead": "default"
            },
            {
                "pitch": 36,
                "time": 23552.0,
                "duration": 85.33333333333333,
                "velocity": 64,
                "hand": ">",
                "notehead": "default"
            },
            {
                "pitch": 42,
                "time": 23637.333333333332,
                "duration": 85.33333333333333,
                "velocity": 64,
                "hand": ">",
                "notehead": "default"
            },
            {
                "pitch": 39,
                "time": 23722.666666666664,
                "duration": 85.33333333333333,
                "velocity": 64,
                "hand": ">",
                "notehead": "default"
            },
            {
                "pitch": 45,
                "time": 23808.0,
                "duration": 85.33333333333333,
                "velocity": 64,
                "hand": ">",
                "notehead": "default"
            },
            {
                "pitch": 42,
                "time": 23893.333333333332,
                "duration": 85.33333333333333,
                "velocity": 64,
                "hand": ">",
                "notehead": "default"
            },
            {
                "pitch": 48,
                "time": 23978.666666666664,
                "duration": 85.33333333333333,
                "velocity": 64,
                "hand": ">",
                "notehead": "default"
            },
            {
                "pitch": 45,
                "time": 24064.0,
                "duration": 85.33333333333333,
                "velocity": 64,
                "hand": ">",
                "notehead": "default"
            },
            {
                "pitch": 51,
                "time": 24149.333333333332,
                "duration": 85.33333333333333,
                "velocity": 64,
                "hand": ">",
                "notehead": "default"
            },
            {
                "pitch": 48,
                "time": 24234.666666666664,
                "duration": 85.33333333333333,
                "velocity": 64,
                "hand": ">",
                "notehead": "default"
            },
            {
                "pitch": 54,
                "time": 24320.0,
                "duration": 85.33333333333333,
                "velocity": 64,
                "hand": ">",
                "notehead": "default"
            },
            {
                "pitch": 51,
                "time": 24405.333333333332,
                "duration": 85.33333333333333,
                "velocity": 64,
                "hand": ">",
                "notehead": "default"
            },
            {
                "pitch": 57,
                "time": 24490.666666666664,
                "duration": 85.33333333333333,
                "velocity": 64,
                "hand": ">",
                "notehead": "default"
            },
            {
                "pitch": 5,
                "time": 23552.0,
                "duration": 1024.0,
                "velocity": 64,
                "hand": "<",
                "notehead": "default"
            },
            {
                "pitch": 5,
                "time": 24576.0,
                "duration": 1024.0,
                "velocity": 64,
                "hand": "<",
                "notehead": "default"
            },
            {
                "pitch": 37,
                "time": 24576.0,
                "duration": 85.33333333333333,
                "velocity": 64,
                "hand": ">",
                "notehead": "default"
            },
            {
                "pitch": 46,
                "time": 24661.333333333332,
                "duration": 85.33333333333333,
                "velocity": 64,
                "hand": ">",
                "notehead": "default"
            },
            {
                "pitch": 41,
                "time": 24746.666666666664,
                "duration": 85.33333333333333,
                "velocity": 64,
                "hand": ">",
                "notehead": "default"
            },
            {
                "pitch": 49,
                "time": 24832.0,
                "duration": 85.33333333333333,
                "velocity": 64,
                "hand": ">",
                "notehead": "default"
            },
            {
                "pitch": 46,
                "time": 24917.333333333332,
                "duration": 85.33333333333333,
                "velocity": 64,
                "hand": ">",
                "notehead": "default"
            },
            {
                "pitch": 53,
                "time": 25002.666666666664,
                "duration": 85.33333333333333,
                "velocity": 64,
                "hand": ">",
                "notehead": "default"
            },
            {
                "pitch": 49,
                "time": 25088.0,
                "duration": 85.33333333333333,
                "velocity": 64,
                "hand": ">",
                "notehead": "default"
            },
            {
                "pitch": 58,
                "time": 25173.333333333332,
                "duration": 85.33333333333333,
                "velocity": 64,
                "hand": ">",
                "notehead": "default"
            },
            {
                "pitch": 53,
                "time": 25258.666666666664,
                "duration": 85.33333333333333,
                "velocity": 64,
                "hand": ">",
                "notehead": "default"
            },
            {
                "pitch": 61,
                "time": 25344.0,
                "duration": 85.33333333333333,
                "velocity": 64,
                "hand": ">",
                "notehead": "default"
            },
            {
                "pitch": 58,
                "time": 25429.333333333332,
                "duration": 85.33333333333333,
                "velocity": 64,
                "hand": ">",
                "notehead": "default"
            },
            {
                "pitch": 53,
                "time": 25514.666666666664,
                "duration": 85.33333333333333,
                "velocity": 64,
                "hand": ">",
                "notehead": "default"
            },
            {
                "pitch": 46,
                "time": 25600.0,
                "duration": 85.33333333333333,
                "velocity": 64,
                "hand": ">",
                "notehead": "default"
            },
            {
                "pitch": 52,
                "time": 25685.333333333332,
                "duration": 85.33333333333333,
                "velocity": 64,
                "hand": ">",
                "notehead": "default"
            },
            {
                "pitch": 49,
                "time": 25770.666666666664,
                "duration": 85.33333333333333,
                "velocity": 64,
                "hand": ">",
                "notehead": "default"
            },
            {
                "pitch": 55,
                "time": 25856.0,
                "duration": 85.33333333333333,
                "velocity": 64,
                "hand": ">",
                "notehead": "default"
            },
            {
                "pitch": 52,
                "time": 25941.333333333332,
                "duration": 85.33333333333333,
                "velocity": 64,
                "hand": ">",
                "notehead": "default"
            },
            {
                "pitch": 58,
                "time": 26026.666666666664,
                "duration": 85.33333333333333,
                "velocity": 64,
                "hand": ">",
                "notehead": "default"
            },
            {
                "pitch": 55,
                "time": 26112.0,
                "duration": 85.33333333333333,
                "velocity": 64,
                "hand": ">",
                "notehead": "default"
            },
            {
                "pitch": 61,
                "time": 26197.333333333332,
                "duration": 85.33333333333333,
                "velocity": 64,
                "hand": ">",
                "notehead": "default"
            },
            {
                "pitch": 58,
                "time": 26282.666666666664,
                "duration": 85.33333333333333,
                "velocity": 64,
                "hand": ">",
                "notehead": "default"
            },
            {
                "pitch": 64,
                "time": 26368.0,
                "duration": 85.33333333333333,
                "velocity": 64,
                "hand": ">",
                "notehead": "default"
            },
            {
                "pitch": 61,
                "time": 26453.333333333332,
                "duration": 85.33333333333333,
                "velocity": 64,
                "hand": ">",
                "notehead": "default"
            },
            {
                "pitch": 67,
                "time": 26538.666666666664,
                "duration": 85.33333333333333,
                "velocity": 64,
                "hand": ">",
                "notehead": "default"
            },
            {
                "pitch": 5,
                "time": 25600.0,
                "duration": 1024.0,
                "velocity": 64,
                "hand": "<",
                "notehead": "default"
            },
            {
                "pitch": 17,
                "time": 25600.0,
                "duration": 1024.0,
                "velocity": 64,
                "hand": "<",
                "notehead": "default"
            },
            {
                "pitch": 5,
                "time": 26624.0,
                "duration": 1024.0,
                "velocity": 64,
                "hand": "<",
                "notehead": "default"
            },
            {
                "pitch": 17,
                "time": 26624.0,
                "duration": 1024.0,
                "velocity": 64,
                "hand": "<",
                "notehead": "default"
            },
            {
                "pitch": 48,
                "time": 26624.0,
                "duration": 85.33333333333333,
                "velocity": 64,
                "hand": ">",
                "notehead": "default"
            },
            {
                "pitch": 54,
                "time": 26709.333333333332,
                "duration": 85.33333333333333,
                "velocity": 64,
                "hand": ">",
                "notehead": "default"
            },
            {
                "pitch": 51,
                "time": 26794.666666666664,
                "duration": 85.33333333333333,
                "velocity": 64,
                "hand": ">",
                "notehead": "default"
            },
            {
                "pitch": 57,
                "time": 26880.0,
                "duration": 85.33333333333333,
                "velocity": 64,
                "hand": ">",
                "notehead": "default"
            },
            {
                "pitch": 54,
                "time": 26965.333333333332,
                "duration": 85.33333333333333,
                "velocity": 64,
                "hand": ">",
                "notehead": "default"
            },
            {
                "pitch": 60,
                "time": 27050.666666666664,
                "duration": 85.33333333333333,
                "velocity": 64,
                "hand": ">",
                "notehead": "default"
            },
            {
                "pitch": 57,
                "time": 27136.0,
                "duration": 85.33333333333333,
                "velocity": 64,
                "hand": ">",
                "notehead": "default"
            },
            {
                "pitch": 63,
                "time": 27221.333333333332,
                "duration": 85.33333333333333,
                "velocity": 64,
                "hand": ">",
                "notehead": "default"
            },
            {
                "pitch": 60,
                "time": 27306.666666666664,
                "duration": 85.33333333333333,
                "velocity": 64,
                "hand": ">",
                "notehead": "default"
            },
            {
                "pitch": 66,
                "time": 27392.0,
                "duration": 85.33333333333333,
                "velocity": 64,
                "hand": ">",
                "notehead": "default"
            },
            {
                "pitch": 63,
                "time": 27477.333333333332,
                "duration": 85.33333333333333,
                "velocity": 64,
                "hand": ">",
                "notehead": "default"
            },
            {
                "pitch": 69,
                "time": 27562.666666666664,
                "duration": 85.33333333333333,
                "velocity": 64,
                "hand": ">",
                "notehead": "default"
            },
            {
                "pitch": 66,
                "time": 27648.0,
                "duration": 85.33333333333333,
                "velocity": 64,
                "hand": ">",
                "notehead": "default"
            },
            {
                "pitch": 60,
                "time": 27733.333333333332,
                "duration": 85.33333333333333,
                "velocity": 64,
                "hand": ">",
                "notehead": "default"
            },
            {
                "pitch": 63,
                "time": 27818.666666666664,
                "duration": 85.33333333333333,
                "velocity": 64,
                "hand": ">",
                "notehead": "default"
            },
            {
                "pitch": 57,
                "time": 27904.0,
                "duration": 85.33333333333333,
                "velocity": 64,
                "hand": ">",
                "notehead": "default"
            },
            {
                "pitch": 60,
                "time": 27989.333333333332,
                "duration": 85.33333333333333,
                "velocity": 64,
                "hand": ">",
                "notehead": "default"
            },
            {
                "pitch": 54,
                "time": 28074.666666666664,
                "duration": 85.33333333333333,
                "velocity": 64,
                "hand": ">",
                "notehead": "default"
            },
            {
                "pitch": 57,
                "time": 28160.0,
                "duration": 85.33333333333333,
                "velocity": 64,
                "hand": ">",
                "notehead": "default"
            },
            {
                "pitch": 51,
                "time": 28245.333333333332,
                "duration": 85.33333333333333,
                "velocity": 64,
                "hand": ">",
                "notehead": "default"
            },
            {
                "pitch": 54,
                "time": 28330.666666666664,
                "duration": 85.33333333333333,
                "velocity": 64,
                "hand": ">",
                "notehead": "default"
            },
            {
                "pitch": 48,
                "time": 28416.0,
                "duration": 85.33333333333333,
                "velocity": 64,
                "hand": ">",
                "notehead": "default"
            },
            {
                "pitch": 51,
                "time": 28501.333333333332,
                "duration": 85.33333333333333,
                "velocity": 64,
                "hand": ">",
                "notehead": "default"
            },
            {
                "pitch": 45,
                "time": 28586.666666666664,
                "duration": 85.33333333333333,
                "velocity": 64,
                "hand": ">",
                "notehead": "default"
            },
            {
                "pitch": 48,
                "time": 28672.0,
                "duration": 85.33333333333333,
                "velocity": 64,
                "hand": ">",
                "notehead": "default"
            },
            {
                "pitch": 42,
                "time": 28757.333333333332,
                "duration": 85.33333333333333,
                "velocity": 64,
                "hand": ">",
                "notehead": "default"
            },
            {
                "pitch": 45,
                "time": 28842.666666666664,
                "duration": 85.33333333333333,
                "velocity": 64,
                "hand": ">",
                "notehead": "default"
            },
            {
                "pitch": 39,
                "time": 28928.0,
                "duration": 85.33333333333333,
                "velocity": 64,
                "hand": ">",
                "notehead": "default"
            },
            {
                "pitch": 42,
                "time": 29013.333333333332,
                "duration": 85.33333333333333,
                "velocity": 64,
                "hand": ">",
                "notehead": "default"
            },
            {
                "pitch": 36,
                "time": 29098.666666666664,
                "duration": 85.33333333333333,
                "velocity": 64,
                "hand": ">",
                "notehead": "default"
            },
            {
                "pitch": 39,
                "time": 29184.0,
                "duration": 85.33333333333333,
                "velocity": 64,
                "hand": ">",
                "notehead": "default"
            },
            {
                "pitch": 5,
                "time": 27648.0,
                "duration": 2048.0,
                "velocity": 64,
                "hand": "<",
                "notehead": "default"
            },
            {
                "pitch": 17,
                "time": 27648.0,
                "duration": 2048.0,
                "velocity": 64,
                "hand": "<",
                "notehead": "default"
            },
            {
                "pitch": 33,
                "time": 29269.333333333332,
                "duration": 170.66666666666666,
                "velocity": 64,
                "hand": ">",
                "notehead": "default"
            },
            {
                "pitch": 36,
                "time": 29354.666666666664,
                "duration": 85.33333333333333,
                "velocity": 64,
                "hand": ">",
                "notehead": "default"
            },
            {
                "pitch": 31,
                "time": 29440.0,
                "duration": 85.33333333333333,
                "velocity": 64,
                "hand": ">",
                "notehead": "default"
            },
            {
                "pitch": 36,
                "time": 29525.333333333332,
                "duration": 85.33333333333333,
                "velocity": 64,
                "hand": ">",
                "notehead": "default"
            },
            {
                "pitch": 39,
                "time": 29610.666666666664,
                "duration": 85.33333333333333,
                "velocity": 64,
                "hand": ">",
                "notehead": "default"
            }
        ],
        "grace_note": [],
        "pedal": [],
        "text": [],
        "slur": [],
        "beam": [],
        "start_repeat": [],
        "end_repeat": [],
        "count_line": [],
        "line_break": [],
        "tempo": [
            {
                "time": 0.0,
                "duration": 256.0,
                "tempo": 50
            }
        ]
    },
    "layout": {
        "page_width_mm": 210.0,
        "page_height_mm": 297.0,
        "page_top_margin_mm": 10.0,
        "page_bottom_margin_mm": 10.0,
        "page_left_margin_mm": 5.0,
        "page_right_margin_mm": 5.0,
        "scale": 1.0,
        "color_right_midinote": "#cccccc",
        "color_left_midinote": "#cccccc",
        "black_note_rule": "below_stem",
        "note_head_visible": true,
        "note_stem_visible": true,
        "note_stem_length_mm": 7.5,
        "note_stem_width_mm": 0.5,
        "note_leftdot_visible": true,
        "beam_visible": true,
        "beam_thickness_mm": 0.5,
        "grace_note_visible": true,
        "pedal_lane_enabled": false,
        "pedal_lane_width_mm": 2.5,
        "text_visible": true,
        "text_font_family": "Courier New",
        "text_font_size_pt": 10.0,
        "slur_visible": true,
        "slur_width_sides_mm": 0.1,
        "slur_width_middle_mm": 0.3,
        "repeat_start_visible": true,
        "repeat_end_visible": true,
        "countline_visible": true,
        "countline_thickness_mm": 0.4,
        "indicator_type": "both"
    },
    "editor": {
        "zoom_mm_per_quarter": 22.727272727272727
    }
}